<svg xmlns="http://www.w3.org/2000/svg" xmlns:xlink="http://www.w3.org/1999/xlink" width="1366" zoomAndPan="magnify" viewBox="0 0 1024.5 576" height="768" preserveAspectRatio="xMidYMid meet" version="1.0"><defs><g/></defs><g fill="#e82026" fill-opacity="1"><g transform="translate(514.601559, 212.571759)"><g><path d="M 17.46875 -29.421875 C 17.46875 -23.265625 18.140625 -18.8125 19.484375 -16.0625 C 20.753906 -13.457031 22.726562 -11.347656 25.40625 -9.734375 C 28.082031 -8.128906 31.53125 -7.328125 35.75 -7.328125 C 41.570312 -7.328125 45.882812 -8.476562 48.6875 -10.78125 C 51.5 -13.09375 53.238281 -15.738281 53.90625 -18.71875 C 54.582031 -21.695312 54.921875 -25.226562 54.921875 -29.3125 L 54.921875 -71.890625 L 64.453125 -71.890625 L 64.453125 -29.515625 C 64.453125 -25.898438 64.234375 -22.398438 63.796875 -19.015625 C 63.367188 -15.640625 62.117188 -12.445312 60.046875 -9.4375 C 57.765625 -6.15625 54.75 -3.5625 51 -1.65625 C 47.257812 0.25 42.34375 1.203125 36.25 1.203125 C 30.351562 1.203125 25.582031 0.332031 21.9375 -1.40625 C 18.289062 -3.144531 15.265625 -5.554688 12.859375 -8.640625 C 10.710938 -11.316406 9.351562 -14.460938 8.78125 -18.078125 C 8.21875 -21.691406 7.9375 -25.472656 7.9375 -29.421875 L 7.9375 -71.890625 L 17.46875 -71.890625 Z M 17.46875 -29.421875 "/></g></g></g><g fill="#e82026" fill-opacity="1"><g transform="translate(520.265986, 332.388303)"><g><path d="M 32.390625 -72.765625 C 40.515625 -72.765625 46.941406 -70.863281 51.671875 -67.0625 C 56.398438 -63.269531 58.929688 -58.039062 59.265625 -51.375 L 50.171875 -50.78125 C 49.640625 -55.375 47.972656 -58.769531 45.171875 -60.96875 C 42.378906 -63.164062 38.25 -64.265625 32.78125 -64.265625 C 27.582031 -64.265625 23.550781 -63.316406 20.6875 -61.421875 C 17.820312 -59.523438 16.390625 -56.941406 16.390625 -53.671875 C 16.390625 -51.535156 17.019531 -49.71875 18.28125 -48.21875 C 19.550781 -46.726562 21.351562 -45.648438 23.6875 -44.984375 C 24.21875 -44.847656 26.179688 -44.265625 29.578125 -43.234375 C 32.984375 -42.203125 37.316406 -41.117188 42.578125 -39.984375 C 48.835938 -38.578125 53.535156 -36.078125 56.671875 -32.484375 C 59.804688 -28.890625 61.375 -24.789062 61.375 -20.1875 C 61.375 -16.320312 60.320312 -12.753906 58.21875 -9.484375 C 56.125 -6.222656 53.078125 -3.625 49.078125 -1.6875 C 45.078125 0.238281 40.347656 1.203125 34.890625 1.203125 C 28.617188 1.203125 23.21875 0.203125 18.6875 -1.796875 C 14.15625 -3.796875 10.691406 -6.609375 8.296875 -10.234375 C 5.898438 -13.867188 4.632812 -18.117188 4.5 -22.984375 L 13.5 -23.78125 C 13.894531 -18.125 16.125 -13.960938 20.1875 -11.296875 C 24.25 -8.628906 29.046875 -7.296875 34.578125 -7.296875 C 40.109375 -7.296875 44.457031 -8.425781 47.625 -10.6875 C 50.789062 -12.957031 52.375 -16.023438 52.375 -19.890625 C 52.375 -25.148438 48.144531 -28.816406 39.6875 -30.890625 L 34.078125 -32.28125 C 30.617188 -33.082031 26.625 -34.148438 22.09375 -35.484375 C 17.488281 -36.816406 13.882812 -39.066406 11.28125 -42.234375 C 8.6875 -45.398438 7.390625 -49.015625 7.390625 -53.078125 C 7.390625 -56.804688 8.390625 -60.171875 10.390625 -63.171875 C 12.390625 -66.171875 15.269531 -68.519531 19.03125 -70.21875 C 22.800781 -71.914062 27.253906 -72.765625 32.390625 -72.765625 Z M 32.390625 -72.765625 "/></g></g></g><g fill="#000000" fill-opacity="1"><g transform="translate(594.100146, 207.848405)"><g><path d="M 9.375 0 L 4.046875 0 L 4.046875 -43.328125 L 9.375 -43.328125 Z M 9.375 0 "/></g></g></g><g fill="#000000" fill-opacity="1"><g transform="translate(611.042964, 207.848405)"><g><path d="M 10.234375 -31.34375 L 15.546875 -31.34375 L 15.546875 -27.359375 L 10.234375 -27.359375 L 10.234375 -7.921875 C 10.234375 -6.554688 10.421875 -5.585938 10.796875 -5.015625 C 11.179688 -4.453125 11.976562 -4.171875 13.1875 -4.171875 C 13.46875 -4.171875 14.253906 -4.273438 15.546875 -4.484375 L 16.34375 0.234375 C 14.726562 0.554688 13.414062 0.71875 12.40625 0.71875 C 10.34375 0.71875 8.765625 0.390625 7.671875 -0.265625 C 6.585938 -0.929688 5.851562 -1.859375 5.46875 -3.046875 C 5.09375 -4.242188 4.90625 -5.789062 4.90625 -7.6875 L 4.90625 -27.359375 L 1.03125 -27.359375 L 1.03125 -31.34375 L 4.90625 -31.34375 L 4.90625 -39.15625 L 10.234375 -42.359375 Z M 10.234375 -31.34375 "/></g></g></g><g fill="#000000" fill-opacity="1"><g transform="translate(631.374315, 207.848405)"><g><path d="M 15.546875 -32.078125 C 17.367188 -32.078125 19.164062 -31.507812 20.9375 -30.375 L 19.125 -25.484375 C 17.832031 -26.242188 16.476562 -26.625 15.0625 -26.625 C 13.050781 -26.625 11.570312 -25.707031 10.625 -23.875 C 9.675781 -22.039062 9.203125 -19.671875 9.203125 -16.765625 L 9.203125 0 L 3.875 0 L 3.875 -31.34375 L 8.65625 -31.34375 L 8.65625 -26.625 C 9.664062 -28.4375 10.660156 -29.796875 11.640625 -30.703125 C 12.628906 -31.617188 13.929688 -32.078125 15.546875 -32.078125 Z M 15.546875 -32.078125 "/></g></g></g><g fill="#000000" fill-opacity="1"><g transform="translate(655.033685, 207.848405)"><g><path d="M 17.1875 -32.078125 C 19.769531 -32.078125 21.859375 -31.820312 23.453125 -31.3125 C 25.046875 -30.8125 26.304688 -30.078125 27.234375 -29.109375 C 28.117188 -28.179688 28.722656 -27.148438 29.046875 -26.015625 C 29.367188 -24.890625 29.53125 -23.398438 29.53125 -21.546875 L 29.53125 -8.890625 C 29.53125 -4.816406 30.09375 -1.851562 31.21875 0 L 25.65625 0 C 25.132812 -1.09375 24.769531 -2.382812 24.5625 -3.875 C 22.632812 -2.257812 20.75 -1.085938 18.90625 -0.359375 C 17.070312 0.359375 15.164062 0.71875 13.1875 0.71875 C 9.800781 0.71875 7.140625 -0.101562 5.203125 -1.75 C 3.265625 -3.40625 2.296875 -5.585938 2.296875 -8.296875 C 2.296875 -9.703125 2.617188 -11.0625 3.265625 -12.375 C 3.910156 -13.6875 4.800781 -14.707031 5.9375 -15.4375 C 7.144531 -16.238281 8.375 -16.820312 9.625 -17.1875 C 10.875 -17.550781 12.40625 -17.832031 14.21875 -18.03125 C 16.15625 -18.238281 18.082031 -18.507812 20 -18.84375 C 21.914062 -19.1875 23.316406 -19.539062 24.203125 -19.90625 L 24.203125 -21.234375 C 24.203125 -23.378906 23.625 -24.992188 22.46875 -26.078125 C 21.320312 -27.171875 19.359375 -27.71875 16.578125 -27.71875 C 13.953125 -27.71875 12.066406 -27.253906 10.921875 -26.328125 C 9.773438 -25.398438 8.9375 -23.863281 8.40625 -21.71875 L 3.203125 -22.390625 C 3.929688 -25.773438 5.453125 -28.234375 7.765625 -29.765625 C 10.085938 -31.304688 13.226562 -32.078125 17.1875 -32.078125 Z M 16.578125 -13.921875 C 14.523438 -13.597656 12.941406 -13.285156 11.828125 -12.984375 C 10.722656 -12.679688 9.804688 -12.175781 9.078125 -11.46875 C 8.347656 -10.757812 7.984375 -9.738281 7.984375 -8.40625 C 7.984375 -6.832031 8.554688 -5.613281 9.703125 -4.75 C 10.859375 -3.882812 12.484375 -3.453125 14.578125 -3.453125 C 15.796875 -3.453125 17.109375 -3.703125 18.515625 -4.203125 C 19.929688 -4.710938 21.160156 -5.59375 22.203125 -6.84375 C 22.890625 -7.644531 23.394531 -8.550781 23.71875 -9.5625 C 24.039062 -10.570312 24.203125 -11.863281 24.203125 -13.4375 L 24.203125 -15.734375 C 22.585938 -15.085938 20.046875 -14.484375 16.578125 -13.921875 Z M 16.578125 -13.921875 "/></g></g></g><g fill="#000000" fill-opacity="1"><g transform="translate(596.450533, 267.073982)"><g><path d="M 9.375 0 L 4.046875 0 L 4.046875 -43.328125 L 9.375 -43.328125 Z M 9.375 0 "/></g></g></g><g fill="#000000" fill-opacity="1"><g transform="translate(613.393352, 267.073982)"><g><path d="M 17 -32.078125 C 20.03125 -32.078125 22.625 -31.359375 24.78125 -29.921875 C 26.9375 -28.492188 28.554688 -26.566406 29.640625 -24.140625 C 30.734375 -21.722656 31.28125 -19.019531 31.28125 -16.03125 L 31.28125 -14.34375 L 7.859375 -14.34375 C 8.023438 -10.988281 8.972656 -8.375 10.703125 -6.5 C 12.441406 -4.625 14.664062 -3.6875 17.375 -3.6875 C 19.425781 -3.6875 21.128906 -4.226562 22.484375 -5.3125 C 23.835938 -6.40625 24.875 -8.003906 25.59375 -10.109375 L 31.109375 -9.4375 C 30.253906 -6.289062 28.644531 -3.816406 26.28125 -2.015625 C 23.925781 -0.222656 21.035156 0.671875 17.609375 0.671875 C 12.804688 0.671875 9.0625 -0.738281 6.375 -3.5625 C 3.695312 -6.394531 2.359375 -10.351562 2.359375 -15.4375 C 2.359375 -18.820312 2.960938 -21.765625 4.171875 -24.265625 C 5.378906 -26.765625 7.082031 -28.691406 9.28125 -30.046875 C 11.488281 -31.398438 14.0625 -32.078125 17 -32.078125 Z M 8.171875 -18.765625 L 25.65625 -18.765625 C 25.539062 -21.742188 24.625 -23.976562 22.90625 -25.46875 C 21.1875 -26.96875 19.21875 -27.71875 17 -27.71875 C 14.5 -27.71875 12.453125 -26.867188 10.859375 -25.171875 C 9.265625 -23.484375 8.367188 -21.347656 8.171875 -18.765625 Z M 8.171875 -18.765625 "/></g></g></g><g fill="#000000" fill-opacity="1"><g transform="translate(650.546343, 267.073982)"><g><path d="M 17.1875 -32.078125 C 19.769531 -32.078125 21.859375 -31.820312 23.453125 -31.3125 C 25.046875 -30.8125 26.304688 -30.078125 27.234375 -29.109375 C 28.117188 -28.179688 28.722656 -27.148438 29.046875 -26.015625 C 29.367188 -24.890625 29.53125 -23.398438 29.53125 -21.546875 L 29.53125 -8.890625 C 29.53125 -4.816406 30.09375 -1.851562 31.21875 0 L 25.65625 0 C 25.132812 -1.09375 24.769531 -2.382812 24.5625 -3.875 C 22.632812 -2.257812 20.75 -1.085938 18.90625 -0.359375 C 17.070312 0.359375 15.164062 0.71875 13.1875 0.71875 C 9.800781 0.71875 7.140625 -0.101562 5.203125 -1.75 C 3.265625 -3.40625 2.296875 -5.585938 2.296875 -8.296875 C 2.296875 -9.703125 2.617188 -11.0625 3.265625 -12.375 C 3.910156 -13.6875 4.800781 -14.707031 5.9375 -15.4375 C 7.144531 -16.238281 8.375 -16.820312 9.625 -17.1875 C 10.875 -17.550781 12.40625 -17.832031 14.21875 -18.03125 C 16.15625 -18.238281 18.082031 -18.507812 20 -18.84375 C 21.914062 -19.1875 23.316406 -19.539062 24.203125 -19.90625 L 24.203125 -21.234375 C 24.203125 -23.378906 23.625 -24.992188 22.46875 -26.078125 C 21.320312 -27.171875 19.359375 -27.71875 16.578125 -27.71875 C 13.953125 -27.71875 12.066406 -27.253906 10.921875 -26.328125 C 9.773438 -25.398438 8.9375 -23.863281 8.40625 -21.71875 L 3.203125 -22.390625 C 3.929688 -25.773438 5.453125 -28.234375 7.765625 -29.765625 C 10.085938 -31.304688 13.226562 -32.078125 17.1875 -32.078125 Z M 16.578125 -13.921875 C 14.523438 -13.597656 12.941406 -13.285156 11.828125 -12.984375 C 10.722656 -12.679688 9.804688 -12.175781 9.078125 -11.46875 C 8.347656 -10.757812 7.984375 -9.738281 7.984375 -8.40625 C 7.984375 -6.832031 8.554688 -5.613281 9.703125 -4.75 C 10.859375 -3.882812 12.484375 -3.453125 14.578125 -3.453125 C 15.796875 -3.453125 17.109375 -3.703125 18.515625 -4.203125 C 19.929688 -4.710938 21.160156 -5.59375 22.203125 -6.84375 C 22.890625 -7.644531 23.394531 -8.550781 23.71875 -9.5625 C 24.039062 -10.570312 24.203125 -11.863281 24.203125 -13.4375 L 24.203125 -15.734375 C 22.585938 -15.085938 20.046875 -14.484375 16.578125 -13.921875 Z M 16.578125 -13.921875 "/></g></g></g><g fill="#000000" fill-opacity="1"><g transform="translate(687.699333, 267.073982)"><g><path d="M 18.875 -32.078125 C 21.132812 -32.078125 23.082031 -31.628906 24.71875 -30.734375 C 26.351562 -29.847656 27.554688 -28.722656 28.328125 -27.359375 C 28.804688 -26.429688 29.144531 -25.429688 29.34375 -24.359375 C 29.550781 -23.285156 29.65625 -21.941406 29.65625 -20.328125 L 29.65625 0 L 24.328125 0 L 24.328125 -19.359375 C 24.328125 -24.765625 22.128906 -27.46875 17.734375 -27.46875 C 16.078125 -27.46875 14.550781 -27.0625 13.15625 -26.25 C 11.769531 -25.445312 10.773438 -24.28125 10.171875 -22.75 C 9.679688 -21.457031 9.4375 -19.722656 9.4375 -17.546875 L 9.4375 0 L 4.109375 0 L 4.109375 -31.34375 L 8.890625 -31.34375 L 8.890625 -26.921875 C 11.273438 -30.359375 14.601562 -32.078125 18.875 -32.078125 Z M 18.875 -32.078125 "/></g></g></g><g fill="#000000" fill-opacity="1"><g transform="translate(724.852328, 267.073982)"><g><path d="M 9.375 -37.28125 L 4.046875 -37.28125 L 4.046875 -43.328125 L 9.375 -43.328125 Z M 9.375 0 L 4.046875 0 L 4.046875 -31.34375 L 9.375 -31.34375 Z M 9.375 0 "/></g></g></g><g fill="#000000" fill-opacity="1"><g transform="translate(741.795149, 267.073982)"><g><path d="M 18.875 -32.078125 C 21.132812 -32.078125 23.082031 -31.628906 24.71875 -30.734375 C 26.351562 -29.847656 27.554688 -28.722656 28.328125 -27.359375 C 28.804688 -26.429688 29.144531 -25.429688 29.34375 -24.359375 C 29.550781 -23.285156 29.65625 -21.941406 29.65625 -20.328125 L 29.65625 0 L 24.328125 0 L 24.328125 -19.359375 C 24.328125 -24.765625 22.128906 -27.46875 17.734375 -27.46875 C 16.078125 -27.46875 14.550781 -27.0625 13.15625 -26.25 C 11.769531 -25.445312 10.773438 -24.28125 10.171875 -22.75 C 9.679688 -21.457031 9.4375 -19.722656 9.4375 -17.546875 L 9.4375 0 L 4.109375 0 L 4.109375 -31.34375 L 8.890625 -31.34375 L 8.890625 -26.921875 C 11.273438 -30.359375 14.601562 -32.078125 18.875 -32.078125 Z M 18.875 -32.078125 "/></g></g></g><g fill="#000000" fill-opacity="1"><g transform="translate(778.948144, 267.073982)"><g><path d="M 15.734375 -32.078125 C 19.367188 -32.078125 22.394531 -30.582031 24.8125 -27.59375 L 24.8125 -31.34375 L 29.71875 -31.34375 L 29.71875 -3.75 C 29.71875 0.84375 29.128906 4.25 27.953125 6.46875 C 26.953125 8.363281 25.429688 9.875 23.390625 11 C 21.347656 12.132812 18.734375 12.703125 15.546875 12.703125 C 12.890625 12.703125 10.625 12.28125 8.75 11.4375 C 6.875 10.59375 5.460938 9.472656 4.515625 8.078125 C 3.566406 6.679688 3.09375 5.160156 3.09375 3.515625 L 3.140625 2.609375 L 8.296875 3.390625 L 8.296875 3.515625 C 8.578125 5.160156 9.3125 6.375 10.5 7.15625 C 11.6875 7.945312 13.453125 8.34375 15.796875 8.34375 C 17.367188 8.34375 18.75 8.082031 19.9375 7.5625 C 21.125 7.039062 22.0625 6.316406 22.75 5.390625 C 23.351562 4.535156 23.765625 3.535156 23.984375 2.390625 C 24.210938 1.242188 24.328125 -0.15625 24.328125 -1.8125 L 24.328125 -4.109375 C 21.941406 -1.367188 19.078125 0 15.734375 0 C 13.023438 0 10.640625 -0.671875 8.578125 -2.015625 C 6.523438 -3.367188 4.925781 -5.253906 3.78125 -7.671875 C 2.632812 -10.097656 2.0625 -12.847656 2.0625 -15.921875 C 2.0625 -19.140625 2.625 -21.96875 3.75 -24.40625 C 4.882812 -26.851562 6.488281 -28.742188 8.5625 -30.078125 C 10.632812 -31.410156 13.023438 -32.078125 15.734375 -32.078125 Z M 7.5 -16.28125 C 7.5 -12.40625 8.285156 -9.445312 9.859375 -7.40625 C 11.429688 -5.375 13.570312 -4.359375 16.28125 -4.359375 C 17.40625 -4.359375 18.703125 -4.726562 20.171875 -5.46875 C 21.648438 -6.21875 22.832031 -7.601562 23.71875 -9.625 C 24.40625 -11.238281 24.75 -13.335938 24.75 -15.921875 C 24.75 -19.671875 23.941406 -22.570312 22.328125 -24.625 C 20.710938 -26.6875 18.59375 -27.71875 15.96875 -27.71875 C 13.507812 -27.71875 11.484375 -26.695312 9.890625 -24.65625 C 8.296875 -22.625 7.5 -19.832031 7.5 -16.28125 Z M 7.5 -16.28125 "/></g></g></g><g fill="#000000" fill-opacity="1"><g transform="translate(592.658734, 330.652617)"><g><path d="M 16.828125 -32.078125 C 19.203125 -32.078125 21.507812 -31.550781 23.75 -30.5 C 25.988281 -29.445312 27.84375 -27.703125 29.3125 -25.265625 C 30.789062 -22.828125 31.53125 -19.628906 31.53125 -15.671875 C 31.53125 -12.160156 30.90625 -9.1875 29.65625 -6.75 C 28.40625 -4.3125 26.671875 -2.460938 24.453125 -1.203125 C 22.234375 0.046875 19.691406 0.671875 16.828125 0.671875 C 12.628906 0.671875 9.195312 -0.640625 6.53125 -3.265625 C 3.59375 -6.128906 2.125 -10.265625 2.125 -15.671875 C 2.125 -19.179688 2.75 -22.164062 4 -24.625 C 5.25 -27.09375 6.984375 -28.953125 9.203125 -30.203125 C 11.421875 -31.453125 13.960938 -32.078125 16.828125 -32.078125 Z M 7.5625 -15.671875 C 7.5625 -11.878906 8.398438 -8.929688 10.078125 -6.828125 C 11.753906 -4.734375 14.003906 -3.6875 16.828125 -3.6875 C 19.609375 -3.6875 21.84375 -4.722656 23.53125 -6.796875 C 25.226562 -8.878906 26.078125 -11.835938 26.078125 -15.671875 C 26.078125 -19.378906 25.25 -22.3125 23.59375 -24.46875 C 21.945312 -26.632812 19.671875 -27.71875 16.765625 -27.71875 C 14.015625 -27.71875 11.789062 -26.65625 10.09375 -24.53125 C 8.40625 -22.414062 7.5625 -19.460938 7.5625 -15.671875 Z M 7.5625 -15.671875 "/></g></g></g><g fill="#000000" fill-opacity="1"><g transform="translate(629.811726, 330.652617)"><g><path d="M 9.3125 -11.25 C 9.3125 -8.832031 9.882812 -7 11.03125 -5.75 C 12.1875 -4.5 13.875 -3.875 16.09375 -3.875 C 17.59375 -3.875 19.035156 -4.304688 20.421875 -5.171875 C 21.816406 -6.035156 22.816406 -7.253906 23.421875 -8.828125 C 23.898438 -10.003906 24.140625 -11.78125 24.140625 -14.15625 L 24.140625 -31.34375 L 29.46875 -31.34375 L 29.46875 0 L 24.6875 0 L 24.6875 -4.59375 C 22.1875 -1.050781 18.859375 0.71875 14.703125 0.71875 C 13.003906 0.71875 11.285156 0.367188 9.546875 -0.328125 C 7.816406 -1.035156 6.46875 -2.175781 5.5 -3.75 C 4.9375 -4.675781 4.546875 -5.703125 4.328125 -6.828125 C 4.109375 -7.960938 4 -9.335938 4 -10.953125 L 4 -31.34375 L 9.3125 -31.34375 Z M 9.3125 -11.25 "/></g></g></g><g fill="#000000" fill-opacity="1"><g transform="translate(666.964718, 330.652617)"><g><path d="M 10.234375 -31.34375 L 15.546875 -31.34375 L 15.546875 -27.359375 L 10.234375 -27.359375 L 10.234375 -7.921875 C 10.234375 -6.554688 10.421875 -5.585938 10.796875 -5.015625 C 11.179688 -4.453125 11.976562 -4.171875 13.1875 -4.171875 C 13.46875 -4.171875 14.253906 -4.273438 15.546875 -4.484375 L 16.34375 0.234375 C 14.726562 0.554688 13.414062 0.71875 12.40625 0.71875 C 10.34375 0.71875 8.765625 0.390625 7.671875 -0.265625 C 6.585938 -0.929688 5.851562 -1.859375 5.46875 -3.046875 C 5.09375 -4.242188 4.90625 -5.789062 4.90625 -7.6875 L 4.90625 -27.359375 L 1.03125 -27.359375 L 1.03125 -31.34375 L 4.90625 -31.34375 L 4.90625 -39.15625 L 10.234375 -42.359375 Z M 10.234375 -31.34375 "/></g></g></g><g fill="#000000" fill-opacity="1"><g transform="translate(687.296065, 330.652617)"><g><path d="M 9.375 -27.78125 C 10.59375 -29.1875 11.96875 -30.253906 13.5 -30.984375 C 15.03125 -31.710938 16.804688 -32.078125 18.828125 -32.078125 C 20.515625 -32.078125 22.046875 -31.8125 23.421875 -31.28125 C 24.796875 -30.757812 25.945312 -30.054688 26.875 -29.171875 C 27.84375 -28.242188 28.546875 -27.070312 28.984375 -25.65625 C 29.429688 -24.25 29.65625 -22.4375 29.65625 -20.21875 L 29.65625 0 L 24.328125 0 L 24.328125 -20.09375 C 24.328125 -22.46875 23.757812 -24.289062 22.625 -25.5625 C 21.5 -26.832031 19.828125 -27.46875 17.609375 -27.46875 C 15.992188 -27.46875 14.457031 -27.015625 13 -26.109375 C 11.550781 -25.203125 10.546875 -23.941406 9.984375 -22.328125 C 9.578125 -21.117188 9.375 -19.566406 9.375 -17.671875 L 9.375 0 L 4.046875 0 L 4.046875 -43.328125 L 9.375 -43.328125 Z M 9.375 -27.78125 "/></g></g></g><g fill="#000000" fill-opacity="1"><g transform="translate(724.44906, 330.652617)"><g><path d="M 9.375 0 L 4.046875 0 L 4.046875 -43.328125 L 9.375 -43.328125 Z M 9.375 0 "/></g></g></g><g fill="#000000" fill-opacity="1"><g transform="translate(741.391882, 330.652617)"><g><path d="M 17.1875 -32.078125 C 19.769531 -32.078125 21.859375 -31.820312 23.453125 -31.3125 C 25.046875 -30.8125 26.304688 -30.078125 27.234375 -29.109375 C 28.117188 -28.179688 28.722656 -27.148438 29.046875 -26.015625 C 29.367188 -24.890625 29.53125 -23.398438 29.53125 -21.546875 L 29.53125 -8.890625 C 29.53125 -4.816406 30.09375 -1.851562 31.21875 0 L 25.65625 0 C 25.132812 -1.09375 24.769531 -2.382812 24.5625 -3.875 C 22.632812 -2.257812 20.75 -1.085938 18.90625 -0.359375 C 17.070312 0.359375 15.164062 0.71875 13.1875 0.71875 C 9.800781 0.71875 7.140625 -0.101562 5.203125 -1.75 C 3.265625 -3.40625 2.296875 -5.585938 2.296875 -8.296875 C 2.296875 -9.703125 2.617188 -11.0625 3.265625 -12.375 C 3.910156 -13.6875 4.800781 -14.707031 5.9375 -15.4375 C 7.144531 -16.238281 8.375 -16.820312 9.625 -17.1875 C 10.875 -17.550781 12.40625 -17.832031 14.21875 -18.03125 C 16.15625 -18.238281 18.082031 -18.507812 20 -18.84375 C 21.914062 -19.1875 23.316406 -19.539062 24.203125 -19.90625 L 24.203125 -21.234375 C 24.203125 -23.378906 23.625 -24.992188 22.46875 -26.078125 C 21.320312 -27.171875 19.359375 -27.71875 16.578125 -27.71875 C 13.953125 -27.71875 12.066406 -27.253906 10.921875 -26.328125 C 9.773438 -25.398438 8.9375 -23.863281 8.40625 -21.71875 L 3.203125 -22.390625 C 3.929688 -25.773438 5.453125 -28.234375 7.765625 -29.765625 C 10.085938 -31.304688 13.226562 -32.078125 17.1875 -32.078125 Z M 16.578125 -13.921875 C 14.523438 -13.597656 12.941406 -13.285156 11.828125 -12.984375 C 10.722656 -12.679688 9.804688 -12.175781 9.078125 -11.46875 C 8.347656 -10.757812 7.984375 -9.738281 7.984375 -8.40625 C 7.984375 -6.832031 8.554688 -5.613281 9.703125 -4.75 C 10.859375 -3.882812 12.484375 -3.453125 14.578125 -3.453125 C 15.796875 -3.453125 17.109375 -3.703125 18.515625 -4.203125 C 19.929688 -4.710938 21.160156 -5.59375 22.203125 -6.84375 C 22.890625 -7.644531 23.394531 -8.550781 23.71875 -9.5625 C 24.039062 -10.570312 24.203125 -11.863281 24.203125 -13.4375 L 24.203125 -15.734375 C 22.585938 -15.085938 20.046875 -14.484375 16.578125 -13.921875 Z M 16.578125 -13.921875 "/></g></g></g><g fill="#000000" fill-opacity="1"><g transform="translate(778.544876, 330.652617)"><g><path d="M 18.875 -32.078125 C 21.132812 -32.078125 23.082031 -31.628906 24.71875 -30.734375 C 26.351562 -29.847656 27.554688 -28.722656 28.328125 -27.359375 C 28.804688 -26.429688 29.144531 -25.429688 29.34375 -24.359375 C 29.550781 -23.285156 29.65625 -21.941406 29.65625 -20.328125 L 29.65625 0 L 24.328125 0 L 24.328125 -19.359375 C 24.328125 -24.765625 22.128906 -27.46875 17.734375 -27.46875 C 16.078125 -27.46875 14.550781 -27.0625 13.15625 -26.25 C 11.769531 -25.445312 10.773438 -24.28125 10.171875 -22.75 C 9.679688 -21.457031 9.4375 -19.722656 9.4375 -17.546875 L 9.4375 0 L 4.109375 0 L 4.109375 -31.34375 L 8.890625 -31.34375 L 8.890625 -26.921875 C 11.273438 -30.359375 14.601562 -32.078125 18.875 -32.078125 Z M 18.875 -32.078125 "/></g></g></g><g fill="#000000" fill-opacity="1"><g transform="translate(815.69786, 330.652617)"><g><path d="M 29.40625 -43.328125 L 29.40625 0 L 24.453125 0 L 24.453125 -4 C 23.847656 -2.945312 22.828125 -1.90625 21.390625 -0.875 C 19.960938 0.15625 18.078125 0.671875 15.734375 0.671875 C 13.191406 0.671875 10.890625 -0.00390625 8.828125 -1.359375 C 6.773438 -2.710938 5.148438 -4.640625 3.953125 -7.140625 C 2.765625 -9.640625 2.171875 -12.546875 2.171875 -15.859375 C 2.171875 -19.160156 2.722656 -22.03125 3.828125 -24.46875 C 4.941406 -26.914062 6.519531 -28.796875 8.5625 -30.109375 C 10.601562 -31.421875 12.972656 -32.078125 15.671875 -32.078125 C 17.648438 -32.078125 19.375 -31.613281 20.84375 -30.6875 C 22.320312 -29.757812 23.398438 -28.789062 24.078125 -27.78125 L 24.078125 -43.328125 Z M 7.625 -15.671875 C 7.625 -13.085938 8.003906 -10.898438 8.765625 -9.109375 C 9.535156 -7.316406 10.578125 -5.960938 11.890625 -5.046875 C 13.203125 -4.140625 14.644531 -3.6875 16.21875 -3.6875 C 18.675781 -3.6875 20.679688 -4.675781 22.234375 -6.65625 C 23.785156 -8.632812 24.5625 -11.476562 24.5625 -15.1875 C 24.5625 -18.976562 23.816406 -22.015625 22.328125 -24.296875 C 20.835938 -26.578125 18.71875 -27.71875 15.96875 -27.71875 C 13.351562 -27.71875 11.304688 -26.644531 9.828125 -24.5 C 8.359375 -22.363281 7.625 -19.421875 7.625 -15.671875 Z M 7.625 -15.671875 "/></g></g></g><g fill="#000000" fill-opacity="1"><g transform="translate(852.850844, 330.652617)"><g/></g></g><g fill="#000000" fill-opacity="1"><g transform="translate(873.182197, 330.652617)"><g><path d="M 10.28125 -5.078125 L 31.65625 -5.078125 L 31.65625 0 L 4.53125 0 L 4.53125 -43.328125 L 10.28125 -43.328125 Z M 10.28125 -5.078125 "/></g></g></g><g fill="#000000" fill-opacity="1"><g transform="translate(910.33518, 330.652617)"><g><path d="M 10.234375 -31.34375 L 15.546875 -31.34375 L 15.546875 -27.359375 L 10.234375 -27.359375 L 10.234375 -7.921875 C 10.234375 -6.554688 10.421875 -5.585938 10.796875 -5.015625 C 11.179688 -4.453125 11.976562 -4.171875 13.1875 -4.171875 C 13.46875 -4.171875 14.253906 -4.273438 15.546875 -4.484375 L 16.34375 0.234375 C 14.726562 0.554688 13.414062 0.71875 12.40625 0.71875 C 10.34375 0.71875 8.765625 0.390625 7.671875 -0.265625 C 6.585938 -0.929688 5.851562 -1.859375 5.46875 -3.046875 C 5.09375 -4.242188 4.90625 -5.789062 4.90625 -7.6875 L 4.90625 -27.359375 L 1.03125 -27.359375 L 1.03125 -31.34375 L 4.90625 -31.34375 L 4.90625 -39.15625 L 10.234375 -42.359375 Z M 10.234375 -31.34375 "/></g></g></g><g fill="#000000" fill-opacity="1"><g transform="translate(930.666534, 330.652617)"><g><path d="M 29.40625 -43.328125 L 29.40625 0 L 24.453125 0 L 24.453125 -4 C 23.847656 -2.945312 22.828125 -1.90625 21.390625 -0.875 C 19.960938 0.15625 18.078125 0.671875 15.734375 0.671875 C 13.191406 0.671875 10.890625 -0.00390625 8.828125 -1.359375 C 6.773438 -2.710938 5.148438 -4.640625 3.953125 -7.140625 C 2.765625 -9.640625 2.171875 -12.546875 2.171875 -15.859375 C 2.171875 -19.160156 2.722656 -22.03125 3.828125 -24.46875 C 4.941406 -26.914062 6.519531 -28.796875 8.5625 -30.109375 C 10.601562 -31.421875 12.972656 -32.078125 15.671875 -32.078125 C 17.648438 -32.078125 19.375 -31.613281 20.84375 -30.6875 C 22.320312 -29.757812 23.398438 -28.789062 24.078125 -27.78125 L 24.078125 -43.328125 Z M 7.625 -15.671875 C 7.625 -13.085938 8.003906 -10.898438 8.765625 -9.109375 C 9.535156 -7.316406 10.578125 -5.960938 11.890625 -5.046875 C 13.203125 -4.140625 14.644531 -3.6875 16.21875 -3.6875 C 18.675781 -3.6875 20.679688 -4.675781 22.234375 -6.65625 C 23.785156 -8.632812 24.5625 -11.476562 24.5625 -15.1875 C 24.5625 -18.976562 23.816406 -22.015625 22.328125 -24.296875 C 20.835938 -26.578125 18.71875 -27.71875 15.96875 -27.71875 C 13.351562 -27.71875 11.304688 -26.644531 9.828125 -24.5 C 8.359375 -22.363281 7.625 -19.421875 7.625 -15.671875 Z M 7.625 -15.671875 "/></g></g></g><g fill="#004aad" fill-opacity="1"><g transform="translate(514.765543, 272.667457)"><g><path d="M 38.875 -72.765625 C 46.144531 -72.765625 52.210938 -70.898438 57.078125 -67.171875 C 61.941406 -63.441406 65.304688 -58.34375 67.171875 -51.875 L 57.765625 -49.671875 C 56.234375 -54.472656 53.9375 -58.171875 50.875 -60.765625 C 47.8125 -63.367188 43.75 -64.671875 38.6875 -64.671875 C 31.21875 -64.671875 25.382812 -62.203125 21.1875 -57.265625 C 16.988281 -52.335938 14.890625 -45.34375 14.890625 -36.28125 C 14.890625 -26.820312 16.9375 -19.554688 21.03125 -14.484375 C 25.132812 -9.421875 30.851562 -6.890625 38.1875 -6.890625 C 43.382812 -6.890625 47.8125 -8.4375 51.46875 -11.53125 C 55.132812 -14.632812 57.601562 -19.15625 58.875 -25.09375 L 68.375 -22.6875 C 66.375 -15.15625 62.804688 -9.289062 57.671875 -5.09375 C 52.546875 -0.894531 46.148438 1.203125 38.484375 1.203125 C 33.210938 1.203125 28.710938 0.503906 24.984375 -0.890625 C 21.253906 -2.296875 18.09375 -4.363281 15.5 -7.09375 C 11.894531 -10.894531 9.257812 -15.328125 7.59375 -20.390625 C 5.925781 -25.453125 5.09375 -30.75 5.09375 -36.28125 C 5.09375 -43.675781 6.507812 -50.125 9.34375 -55.625 C 12.175781 -61.125 16.140625 -65.351562 21.234375 -68.3125 C 26.335938 -71.28125 32.21875 -72.765625 38.875 -72.765625 Z M 38.875 -72.765625 "/></g></g></g></svg>